<?xml version="1.0" standalone="no"?><!DOCTYPE svg PUBLIC "-//W3C//DTD SVG 1.1//EN" "http://www.w3.org/Graphics/SVG/1.1/DTD/svg11.dtd"><svg class="icon" height="512" viewBox="0 0 1024 1024" version="1.1" xmlns="http://www.w3.org/2000/svg"><path d="M503.741935 0C225.527742 0 0 225.527742 0 503.741935S225.527742 1007.483871 503.741935 1007.483871 1007.483871 781.956129 1007.483871 503.741935 781.956129 0 503.741935 0zM503.741935 975.624258c-260.608 0-471.882323-211.274323-471.882323-471.882323 0-260.624516 211.274323-471.882323 471.882323-471.882323S975.624258 243.117419 975.624258 503.741935C975.624258 764.349935 764.349935 975.624258 503.741935 975.624258zM503.741935 697.013677l-12.833032-15.855484c-5.863226-7.234065-143.905032-178.076903-171.321806-246.48671-17.457548-43.586065-18.877935-91.829677-3.402323-140.321032 16.251871-50.90271 54.090323-92.985806 103.374452-113.664 143.822452-60.333419 282.442323 44.213677 282.442323 180.488258 0 25.30271-4.723613 49.944774-14.022194 73.282065C660.645161 502.965677 522.438194 673.940645 516.574968 681.17471L503.741935 697.013677zM480.916645 197.780645c-76.007226 10.223484-136.258065 74.140903-141.939613 150.627097-1.899355 25.649548 1.915871 50.621935 11.264 73.975742 20.942452 52.257032 118.189419 177.383226 153.484387 221.927226 35.328-44.544 132.674065-169.76929 153.566968-222.108903 7.746065-19.406452 11.676903-39.936 11.676903-61.010581C668.96929 262.738581 582.144 184.171355 480.916645 197.780645zM527.442581 460.833032c-74.785032 16.796903-140.370581-48.491355-123.672774-123.061677 8.40671-37.574194 38.779871-67.831742 76.337548-76.254968 74.768516-16.747355 140.321032 48.524387 123.639742 123.078194C595.323871 422.168774 564.983742 452.409806 527.442581 460.833032zM487.275355 293.788903c-25.021935 5.764129-45.402839 25.979871-51.2 50.98529-10.504258 45.287226 23.931871 85.685677 67.666581 85.685677 38.366968 0 69.582452-31.083355 69.582452-69.268645C573.324387 317.621677 532.760774 283.334194 487.275355 293.788903zM506.021161 809.967484c-111.83071 0-225.032258-31.215484-225.032258-90.83871 0-30.274065 29.861161-55.626323 84.562581-72.274581 9.100387-2.758194 18.778839 2.543484 21.074581 11.776l0 0.033032c2.114065 8.456258-2.77471 17.176774-11.098839 19.703742-42.149161 12.8-61.506065 29.580387-61.506065 40.761806 0 23.568516 74.801548 57.806452 192 57.806452s192-34.237935 192-57.806452c0-10.074839-15.673806-24.774194-50.242065-37.045677-8.208516-2.923355-12.816516-11.759484-10.388645-20.133161l0 0c2.675613-9.216 12.684387-14.104774 21.702194-10.900645 46.575484 16.631742 71.960774 40.464516 71.960774 68.079484C731.053419 778.752 617.851871 809.967484 506.021161 809.967484z" /></svg>